<?xml version="1.0" encoding="UTF-8"?>
<svg id="Layer_1" xmlns="http://www.w3.org/2000/svg" version="1.1" viewBox="0 0 317.7 90.6">
  <!-- Generator: Adobe Illustrator 30.1.0, SVG Export Plug-In . SVG Version: 2.1.1 Build 109)  -->
  <defs>
    <style>
      .st0 {
        fill: #578fd5;
      }
    </style>
  </defs>
  <path class="st0" d="M297.06,41.22c-3.16-2.72-8.1.3-10.35,3.05l.02,17.25c0,1.05.3,2,.93,2.56,1.17,1.05,3.29.93,3.29.93.2-.09.45.69.21.69h-13.74c-.32-1.56,4.05.36,4.31-3.56l.18-2.74-.05-26.72c0-1.97.14-5.8-1.05-6.68-1.61-1.19-3.83.87-3.47-.74l8.27-3.36c.47-.19,1.08-.08,1.08.44l.1,20.48c3.72-3.85,7.53-7.6,12.45-5.43,3.96,1.74,4.33,7.03,4.36,10.81l.12,13.91c.03,3.24,3.81,2.84,3.7,2.9.22-.13.45.66.26.66l-13.5.08c-.71-1.43,4.55.25,4.53-3.68l-.05-16.36c0-1.6-.31-3.38-1.62-4.51Z"/>
  <path class="st0" d="M213.52,65.74l-17.41-.02c0-.45.03-.65.18-.67.35-.04.78-.13,1.1-.1,2.47.23,4.52-1.21,4.52-3.76V26.31c-2.57-.08-4.95-.1-7.45,0-6.02.26-6.05,6.77-6.28,7.01-.13.14-.74.24-.72-.14l.44-9.24h34.11s.45,9.51.45,9.51c-.73.16-.94-.49-.97-.95-.27-3.66-3.01-6.19-6.69-6.22-2.39-.02-4.68-.08-7.14.03l.02,33.71c0,1.25.18,2.64.84,3.58,1.67,2.37,6.02.52,4.99,2.13Z"/>
  <path class="st0" d="M160.82,46.16c0-1.69-.41-3.3-1.27-4.53-.9-1.3-2.58-1.45-4.12-1.29-2.68.28-4.8,1.91-6.66,3.95l.05,17.83c.01,4.09,5.39,2.02,4.55,3.64l-14.03-.12c1.03-1.2,2.4-.36,3.36-1.29.66-.63,1.13-1.76,1.13-2.82l-.05-18.23c0-.93-.43-1.9-.9-2.3-1.08-.9-3.18-.09-3.16-.13-.17.32-.6-.55-.44-.61l8.17-3.38c.32-.13,1.27-.19,1.27.12l.13,5.85c1.96-1.89,3.45-3.68,5.68-4.93,2.66-1.5,5.95-1.66,8.28.46,1.76,1.61,2.72,3.98,2.75,6.44l.19,17.07c.01.97.45,1.83.97,2.33,1.12,1.08,2.81.49,3.25.91.11.1.19.59-.13.59h-13.47c-.94-1.36,4.48.4,4.47-3.92l-.03-15.64Z"/>
  <path class="st0" d="M134.52,44.23c4.04,7.83.16,19.05-7.68,21.65-4.26,1.41-8.59.99-11.89-1.54-6.11-4.7-7.47-12.85-4.24-19.63,2.27-4.77,6.55-7.76,11.67-7.91s9.7,2.7,12.14,7.43ZM130.36,48.92c-.76-5.27-4.01-11.56-10.15-10.26-2.28.48-4.2,2.31-4.97,4.95-1.46,5.04-.95,10.54,1.08,15.42,1.82,4.38,5.71,7.09,10.08,5.16,5-2.21,4.6-10.78,3.95-15.27Z"/>
  <path class="st0" d="M72.99,65.74h-17.25c-.31.01-.42-.18-.41-.46,0-.81,3.43.51,5.08-1.7.63-.84.86-2.17.86-3.32l.04-29.19c0-1.47.05-3.02-.54-4.29-1.45-3.12-6.27-1.19-5.39-2.68.06-.11.29-.18.59-.18l17.06.05c.82,1.73-2.53-.2-4.81,1.81-.85.75-1.26,2.09-1.26,3.5l-.02,31.04c0,1.11.16,2.4.8,3.17,2.09,2.5,6.15.65,5.24,2.25Z"/>
  <path class="st0" d="M241,61.06c3.31-1.54,4.11-5.58,4.59-5.63,1.35-.13-.84,7.02-5.93,9.93-4.25,2.43-9.5,1.38-12.91-1.97-1.79-1.76-3.07-3.72-3.71-6.19-1.02-3.94-.93-8.05.41-11.9,2.28-6.55,9.26-10.19,15.83-7.85,4.47,1.59,7.04,6.04,6.83,10.61l-19.65.02c-.06,3.22.49,6.28,2.11,8.89,2.7,4.35,7.74,6.26,12.42,4.08ZM239.92,46.5c.18-3.47-1.19-6.24-4-7.38-2.25-.91-4.67-.42-6.51,1.12s-2.76,3.88-2.88,6.26h13.4Z"/>
  <path class="st0" d="M259.46,60.23c3.23,3,8.11,2.38,11.17-.39,1.57-1.42,1.96-3.3,3.39-5.05-.08,3.57-2.01,6.74-4.44,8.98-4.49,4.15-10.9,3.72-14.99-.67-2.05-2.2-3.33-4.78-3.79-7.87-.54-3.64-.35-7.37,1.27-10.7,2.17-4.44,6.33-7.46,11.25-7.73,6.61-.36,11.18,4.78,9.9,7.66-.63,1.41-2.24,1.68-3.54,1.35-3.33-.85-1.36-5.15-3.82-6.52-3.33-1.85-7.28-.37-9.05,2.89-2.78,5.12-1.96,13.78,2.64,18.05Z"/>
  <path class="st0" d="M75.45,65.52c-.76-1.02,2.21-.02,3.67-1.35.63-.58,1.03-1.71,1.03-2.84l.05-29.06c0-1.92.03-3.77-.51-5.55-.58-1.9-3.5-.73-3.77-.81-.17-.05-.32-.59-.09-.69l7.2-3c.64-.27,1.34-.55,1.93-.16l.07,39.44c0,1.1.42,2.02.92,2.59,1.46,1.67,4.32.03,3.51,1.62l-13.37.03c-.26,0-.5-.08-.62-.24Z"/>
  <path class="st0" d="M106.98,65.67l-13.88-.02c.4-1.11,1.34-.54,1.94-1.04.48-.79.32-1.83-.28-2.6l-9.26-11.89,9.04-8.38c.48-.44.88-.89.95-1.36.35-2.41-2.27-1.59-2.33-2.74l12.53.28c-3.2.7-5.67,1.26-7.95,3.39l-7.75,7.26,10.21,12.77c1.1,1.37,2.3,2.61,3.89,3.35.88.59,1.99-.41,2.89.98Z"/>
  <g>
    <path class="st0" d="M37.15,66.81c.12-.74.2-1.37-.04-2.01-1.21-.11-2.16-.43-3.05-.93-.66-.38-1.29-1.04-1.29-2.05l-.08-25.99-11.23.72c-.02.69-.05,1.19,0,1.8,2.14.59,5.48.85,5.48,4.37l-.03,19.38c0,2.82-3.37,2.5-4.54,2.79.04.6-.04,1.2.16,1.94l14.62-.02Z"/>
    <path class="st0" d="M28.88,19.72c-2.16.3-3.39,2.2-3.58,4.45.21,1.34.91,2.54,1.91,3.26,1.1.78,2.88.95,4.21.14,1.13-.68,2.43-3.13,2.01-4.86-.49-1.99-2.86-3.23-4.56-2.99Z"/>
  </g>
</svg>