<?xml version="1.0" encoding="UTF-8"?>
<svg id="Layer_1" xmlns="http://www.w3.org/2000/svg" version="1.1" viewBox="0 0 608 575">
  <!-- Generator: Adobe Illustrator 30.1.0, SVG Export Plug-In . SVG Version: 2.1.1 Build 109)  -->
  <defs>
    <style>
      .st0 {
        fill: #a20000;
      }

      .st1 {
        fill: #414141;
      }
    </style>
  </defs>
  <g>
    <path class="st1" d="M261.93,431.72c-2.41,0-5.26.7-8.57,2.11-3.31,1.41-6.26,3.27-8.87,5.58v40.73c4.71,1.81,9.32,2.72,13.83,2.72,7.52,0,13.33-2.57,17.44-7.69,4.11-5.13,6.16-11.36,6.16-18.71s-1.8-13.42-5.41-17.95c-3.51-4.53-8.37-6.79-14.58-6.79Z"/>
    <path class="st1" d="M0,318v257h608v-257H0ZM95.57,493.12c-9.32,0-16.94-3.37-22.85-10.11-5.81-6.84-8.72-15.59-8.72-26.25s2.91-19.46,8.72-26.1c5.91-6.64,13.53-9.96,22.85-9.96,6.71,0,13.53,1.51,20.44,4.53l-3.76,9.35c-5.11-2.21-10.57-3.32-16.39-3.32s-10.27,2.16-13.68,6.49c-3.31,4.32-4.96,10.66-4.96,19.01s1.75,14.73,5.26,19.16c3.51,4.42,8.12,6.64,13.83,6.64s11.62-1.41,17.74-4.22l2.86,9.96c-7.02,3.22-14.13,4.83-21.35,4.83ZM196,491.31h-8.12l-3.76-9.05c-3.21,3.32-7.02,5.98-11.42,7.99-4.41,1.91-8.42,2.87-12.03,2.87-6.21,0-11.17-1.71-14.88-5.13-3.71-3.42-5.56-7.89-5.56-13.42,0-16.29,14.33-24.44,42.99-24.44v-6.64c0-8.15-4.21-12.22-12.63-12.22-6.61,0-13.53,2.16-20.74,6.49l-4.36-9.05c8.42-5.33,17.49-7.99,27.21-7.99,6.81,0,12.38,1.76,16.68,5.28,4.41,3.42,6.61,8.75,6.61,15.99v49.33ZM285.68,482.1c-6.01,7.34-14.63,11.01-25.85,11.01-5.01,0-10.12-.7-15.33-2.11v35h-12.48v-103.48h8.12l3.46,7.84c7.32-6.44,15.08-9.65,23.3-9.65s14.93,3.22,20.14,9.65c5.21,6.44,7.82,14.83,7.82,25.19s-3.06,19.11-9.17,26.55ZM341.03,491.31h-12.78v-68.79h12.78v68.79ZM340.43,406.38c-1.6,1.61-3.56,2.41-5.86,2.41s-4.26-.8-5.86-2.41c-1.6-1.71-2.41-3.72-2.41-6.03s.8-4.27,2.41-5.88c1.7-1.71,3.66-2.56,5.86-2.56s4.11.85,5.71,2.56c1.7,1.61,2.55,3.57,2.55,5.88s-.8,4.32-2.41,6.03ZM400.88,493.12c-5.41,0-9.92-1.61-13.53-4.83-3.61-3.32-5.41-8.35-5.41-15.08v-41.18h-9.47v-9.5h9.47v-13.58l9.32-8.6h3.01v22.17h19.39v9.5h-19.39v41.33c0,6.03,2.86,9.05,8.57,9.05,3.31,0,7.27-.96,11.88-2.87l1.65,10.11c-4.91,2.31-10.07,3.47-15.48,3.47ZM495.26,491.31h-8.12l-3.76-9.05c-3.21,3.32-7.02,5.98-11.42,7.99-4.41,1.91-8.42,2.87-12.03,2.87-6.21,0-11.17-1.71-14.88-5.13-3.71-3.42-5.56-7.89-5.56-13.42,0-16.29,14.33-24.44,42.99-24.44v-6.64c0-8.15-4.21-12.22-12.63-12.22-6.61,0-13.53,2.16-20.74,6.49l-4.36-9.05c8.42-5.33,17.49-7.99,27.21-7.99,6.82,0,12.38,1.76,16.69,5.28,4.41,3.42,6.61,8.75,6.61,15.99v49.33ZM543,491.31h-12.33v-108.31h12.33v108.31Z"/>
    <path class="st1" d="M453.62,469.43c-.6,1.31-.9,3.07-.9,5.28s.9,3.97,2.71,5.58c1.9,1.51,4.36,2.26,7.37,2.26,6.31,0,12.88-2.82,19.69-8.45v-15.08c-12.63.2-20.95,2.11-24.95,5.73-1.9,1.71-3.21,3.27-3.91,4.68Z"/>
    <path class="st1" d="M154.36,469.43c-.6,1.31-.9,3.07-.9,5.28s.9,3.97,2.7,5.58c1.91,1.51,4.36,2.26,7.37,2.26,6.31,0,12.88-2.82,19.69-8.45v-15.08c-12.63.2-20.95,2.11-24.95,5.73-1.9,1.71-3.21,3.27-3.91,4.68Z"/>
  </g>
  <path class="st0" d="M3,0v294h294V0H3ZM207.05,198.91c0,4.62-3.74,8.36-8.36,8.36s-8.36-3.74-8.36-8.36v-69.61l-33.72,73.07c-1.74,3.77-5.94,5.62-9.82,4.54-3.07-.09-5.98-1.86-7.36-4.85l-32.68-70.81v67.65c0,4.62-3.74,8.36-8.36,8.36s-8.36-3.74-8.36-8.36v-103.92c-1.65-4.1.19-8.82,4.25-10.69,1.48-.68,3.06-.89,4.57-.69,4.19.23,7.56,3.53,7.87,7.7l41.37,89.64,42.72-92.56c1.66-3.6,5.56-5.45,9.28-4.68,3.95.67,6.96,4.09,6.96,8.23v106.98Z"/>
  <path class="st0" d="M314,0v294h294V0h-294ZM427.69,198.91c0,4.62-3.74,8.36-8.36,8.36s-8.36-3.74-8.36-8.36v-106.98c0-4.62,3.74-8.36,8.36-8.36s8.36,3.74,8.36,8.36v106.98ZM505.66,192.23c3.33,3.2,3.43,8.49.22,11.82-3.2,3.33-8.49,3.43-11.82.22l-54.75-52.71c-1.8-1.74-2.65-4.09-2.54-6.41-.11-2.32.74-4.67,2.54-6.41l54.75-52.71c3.33-3.2,8.62-3.1,11.82.22,3.2,3.33,3.1,8.62-.22,11.82l-48.9,47.08,48.9,47.08Z"/>
</svg>